HIERARCHY
ROOT joint_Root
{
	OFFSET 0.0 0.0 0.0
	CHANNELS 6 Xposition Yposition Zposition Zrotation Xrotation Yrotation 
	JOINT Hips
	{
		OFFSET 4.5925 91.4895 -427.239
		CHANNELS 6 Xposition Yposition Zposition Zrotation Xrotation Yrotation 
		JOINT Spine
		{
			OFFSET 15.7357 0.0 0.0
			CHANNELS 6 Xposition Yposition Zposition Zrotation Xrotation Yrotation 
			JOINT Chest
			{
				OFFSET 8.98455 -0.406207 0.0
				CHANNELS 6 Xposition Yposition Zposition Zrotation Xrotation Yrotation 
				JOINT Neck
				{
					OFFSET 16.3773 0.0 0.0
					CHANNELS 6 Xposition Yposition Zposition Zrotation Xrotation Yrotation 
					JOINT Head
					{
						OFFSET 6.45672 0.0 0.0
						CHANNELS 6 Xposition Yposition Zposition Zrotation Xrotation Yrotation 
						End Site
						{
							OFFSET 0.0 0.0 0.0
						}
					}
				}
				JOINT Shoulder_L
				{
					OFFSET 12.9942 -0.242716 4.98039
					CHANNELS 6 Xposition Yposition Zposition Zrotation Xrotation Yrotation 
					JOINT UpperArm_L
					{
						OFFSET 5.34809 0.0 0.0
						CHANNELS 6 Xposition Yposition Zposition Zrotation Xrotation Yrotation 
						JOINT LowerArm_L
						{
							OFFSET 24.3286 1.87007e-05 0.0
							CHANNELS 6 Xposition Yposition Zposition Zrotation Xrotation Yrotation 
							JOINT Hand_L
							{
								OFFSET 22.2916 0.0 0.0
								CHANNELS 6 Xposition Yposition Zposition Zrotation Xrotation Yrotation 
								End Site
								{
									OFFSET 0.0 0.0 0.0
								}
							}
						}
					}
				}
				JOINT Shoulder_R
				{
					OFFSET 12.9945 -0.242716 -4.98039
					CHANNELS 6 Xposition Yposition Zposition Zrotation Xrotation Yrotation 
					JOINT UpperArm_R
					{
						OFFSET -5.34813 0.0 0.0
						CHANNELS 6 Xposition Yposition Zposition Zrotation Xrotation Yrotation 
						JOINT LowerArm_R
						{
							OFFSET -24.3289 0.000322201 0.0
							CHANNELS 6 Xposition Yposition Zposition Zrotation Xrotation Yrotation 
							JOINT Hand_R
							{
								OFFSET -22.2915 -0.000108084 0.0
								CHANNELS 6 Xposition Yposition Zposition Zrotation Xrotation Yrotation 
								End Site
								{
									OFFSET 0.0 0.0 0.0
								}
							}
						}
					}
				}
			}
		}
		JOINT UpperLeg_L
		{
			OFFSET -2.19248 -6.46944 0.0
			CHANNELS 6 Xposition Yposition Zposition Zrotation Xrotation Yrotation 
			JOINT LowerLeg_L
			{
				OFFSET 39.0811 0.0 -1.23785e-05
				CHANNELS 6 Xposition Yposition Zposition Zrotation Xrotation Yrotation 
				JOINT Foot_L
				{
					OFFSET 40.9854 0.0 -1.26872e-05
					CHANNELS 6 Xposition Yposition Zposition Zrotation Xrotation Yrotation 
					JOINT Toes_L
					{
						OFFSET 11.7543 0.0 0.0
						CHANNELS 6 Xposition Yposition Zposition Zrotation Xrotation Yrotation 
						End Site
						{
							OFFSET 0.0 0.0 0.0
						}
					}
				}
			}
		}
		JOINT UpperLeg_R
		{
			OFFSET -2.19251 6.46944 0.0
			CHANNELS 6 Xposition Yposition Zposition Zrotation Xrotation Yrotation 
			JOINT LowerLeg_R
			{
				OFFSET -39.0811 -0.00228153 -0.0401928
				CHANNELS 6 Xposition Yposition Zposition Zrotation Xrotation Yrotation 
				JOINT Foot_R
				{
					OFFSET -40.9854 0.0 0.0
					CHANNELS 6 Xposition Yposition Zposition Zrotation Xrotation Yrotation 
					JOINT Toes_R
					{
						OFFSET -11.7543 0.0 0.0
						CHANNELS 6 Xposition Yposition Zposition Zrotation Xrotation Yrotation 
						End Site
						{
							OFFSET 0.0 0.0 0.0
						}
					}
				}
			}
		}
	}
}
MOTION
Frames:	4
Frame Time:	0.0333333
0.000000 0.000000 0.000000 0.000000 0.000000 -0.000000 -1.119590 90.150000 0.568706 88.689400 -3.618620 10.539300 15.735700 0.000005 -0.000001 88.469700 78.834600 -88.361100 8.984550 -0.406207 -0.000000 14.557900 -0.582561 0.291717 16.377300 -0.000001 -0.000001 3.834210 -3.408950 1.844820 6.456720 -0.000001 -0.000000 -5.896720 -2.400290 1.552240 12.994200 -0.242716 4.980390 -91.422800 6.707510 -77.994700 5.348090 -0.000007 -0.000001 -57.568700 36.692800 -26.599700 24.328600 0.000019 0.000005 9.451570 22.810100 -23.239200 22.291600 -0.000001 0.000005 8.955710 5.260950 1.141490 12.994500 -0.242716 -4.980390 88.949200 11.164400 -84.588500 -5.348130 -0.000001 -0.000004 -58.183300 36.234100 -21.049700 -24.328900 0.000322 -0.000009 1.739900 4.637790 -20.601800 -22.291500 -0.000108 -0.000004 16.476600 5.425610 -3.789110 -2.192480 -6.469440 -0.000000 -173.519000 -12.944800 -0.819383 39.081100 -0.000007 -0.000012 -0.244662 0.358456 34.315600 40.985400 -0.000006 -0.000013 -0.601627 2.686160 -72.456600 11.754300 -0.000000 0.000003 -0.000239 -0.002153 -16.658300 -2.192510 6.469440 -0.000001 174.481000 19.840600 -179.299000 -39.081100 -0.002282 -0.040193 -0.263750 0.414144 32.814900 -40.985400 0.000008 0.000006 3.319970 12.578300 -72.392700 -11.754300 -0.000006 -0.000006 -0.002384 -0.033422 -17.932200
0.000000 0.000000 0.000000 0.000000 0.000000 -0.000000 -1.112630 90.153800 0.552921 88.702100 -3.653400 10.553600 15.735700 0.000005 -0.000001 88.573000 78.803200 -88.461800 8.984550 -0.406207 -0.000000 14.621700 -0.544087 0.292185 16.377300 -0.000001 -0.000001 3.828420 -3.421280 1.884020 6.456720 -0.000001 -0.000000 -5.967020 -2.416290 1.529610 12.994200 -0.242716 4.980390 -91.440600 6.739630 -77.905100 5.348090 -0.000007 -0.000001 -57.694700 35.992100 -26.388300 24.328600 0.000019 0.000005 9.807310 22.325900 -24.467800 22.291600 -0.000001 0.000005 9.138610 5.262440 1.101680 12.994500 -0.242716 -4.980390 88.950800 11.133800 -84.582100 -5.348130 -0.000001 -0.000004 -58.196600 36.233200 -21.075600 -24.328900 0.000322 -0.000009 1.735390 4.627640 -20.594000 -22.291500 -0.000108 -0.000004 16.445300 5.426660 -3.824740 -2.192480 -6.469440 -0.000000 -173.541000 -12.952200 -0.803167 39.081100 -0.000007 -0.000012 -0.242350 0.355321 34.296800 40.985400 -0.000006 -0.000013 -0.608115 2.640670 -72.440200 11.754300 -0.000000 0.000003 -0.000220 -0.002006 -16.653000 -2.192510 6.469440 -0.000001 174.477000 19.798600 -179.311000 -39.081100 -0.002282 -0.040193 -0.261769 0.410799 32.832200 -40.985400 0.000008 0.000006 3.447600 12.563500 -72.420400 -11.754300 -0.000006 -0.000006 -0.002420 -0.033860 -17.950000
0.000000 0.000000 0.000000 0.000000 0.000000 -0.000000 -1.116280 90.152700 0.524121 88.703900 -3.615830 10.581500 15.735700 0.000005 -0.000001 88.569600 78.774400 -88.446200 8.984550 -0.406207 -0.000000 14.679200 -0.545978 0.317304 16.377300 -0.000001 -0.000001 3.814670 -3.447200 1.901510 6.456720 -0.000001 -0.000000 -5.999070 -2.465800 1.491480 12.994200 -0.242716 4.980390 -91.448500 6.736180 -77.834900 5.348090 -0.000007 -0.000001 -57.735600 35.249700 -26.232200 24.328600 0.000019 0.000005 10.263600 21.735400 -26.057100 22.291600 -0.000001 0.000005 9.277570 5.265760 1.012570 12.994500 -0.242716 -4.980390 88.954300 11.091300 -84.579800 -5.348130 -0.000001 -0.000004 -58.177500 36.298200 -21.097900 -24.328900 0.000322 -0.000009 1.722200 4.588070 -20.611800 -22.291500 -0.000108 -0.000004 16.433600 5.426040 -3.803650 -2.192480 -6.469440 -0.000000 -173.543000 -12.923100 -0.816477 39.081100 -0.000007 -0.000012 -0.242729 0.355608 34.316900 40.985400 -0.000006 -0.000013 -0.608097 2.639130 -72.422100 11.754300 -0.000000 0.000003 -0.000232 -0.002098 -16.656400 -2.192510 6.469440 -0.000001 174.482000 19.825600 -179.306000 -39.081100 -0.002282 -0.040193 -0.259173 0.406413 32.855500 -40.985400 0.000008 0.000006 3.483600 12.504200 -72.427000 -11.754300 -0.000006 -0.000006 -0.002331 -0.032781 -17.906100
0.000000 0.000000 0.000000 0.000000 0.000000 -0.000000 -1.118900 90.147500 0.509280 88.728500 -3.569080 10.599500 15.735700 0.000005 -0.000001 88.649200 78.749000 -88.523300 8.984550 -0.406207 -0.000000 14.730700 -0.516104 0.318611 16.377300 -0.000001 -0.000001 3.790760 -3.482600 1.893590 6.456720 -0.000001 -0.000000 -5.993190 -2.530350 1.497220 12.994200 -0.242716 4.980390 -91.441000 6.689340 -77.814400 5.348090 -0.000007 -0.000001 -57.486000 34.582900 -26.317400 24.328600 0.000019 0.000005 10.762600 21.033200 -27.906200 22.291600 -0.000001 0.000005 9.405730 5.269730 0.905119 12.994500 -0.242716 -4.980390 88.951600 11.098200 -84.569100 -5.348130 -0.000001 -0.000004 -58.176500 36.231500 -21.074000 -24.328900 0.000322 -0.000009 1.716190 4.566570 -20.634300 -22.291500 -0.000108 -0.000004 16.405200 5.426030 -3.803320 -2.192480 -6.469440 -0.000000 -173.559000 -12.934000 -0.825446 39.081100 -0.000007 -0.000012 -0.242050 0.354344 34.337100 40.985400 -0.000006 -0.000013 -0.585228 2.703890 -72.418000 11.754300 -0.000000 0.000003 -0.000222 -0.002019 -16.653500 -2.192510 6.469440 -0.000001 174.448000 19.820300 -179.313000 -39.081100 -0.002282 -0.040193 -0.263709 0.413020 32.881900 -40.985400 0.000008 0.000006 3.369380 12.507600 -72.401800 -11.754300 -0.000006 -0.000006 -0.002275 -0.032111 -17.878800
